<svg width="264" height="80" viewBox="0 0 264 80" fill="none" xmlns="http://www.w3.org/2000/svg">
<path d="M30.9453 44.0781L44.0312 17.125H54.9688L35.9062 53.0625V74H25.9844V53.0625L6.88281 17.125H17.8594L30.9453 44.0781ZM84.2656 69.8594C81.4792 73.1406 77.5208 74.7812 72.3906 74.7812C67.8073 74.7812 64.3307 73.4401 61.9609 70.7578C59.6172 68.0755 58.4453 64.1953 58.4453 59.1172V31.7344H67.9375V59C67.9375 64.3646 70.1641 67.0469 74.6172 67.0469C79.2266 67.0469 82.3385 65.3932 83.9531 62.0859V31.7344H93.4453V74H84.5L84.2656 69.8594ZM128.719 69.8594C125.932 73.1406 121.974 74.7812 116.844 74.7812C112.26 74.7812 108.784 73.4401 106.414 70.7578C104.07 68.0755 102.898 64.1953 102.898 59.1172V31.7344H112.391V59C112.391 64.3646 114.617 67.0469 119.07 67.0469C123.68 67.0469 126.792 65.3932 128.406 62.0859V31.7344H137.898V74H128.953L128.719 69.8594ZM159.461 21.4609V31.7344H166.922V38.7656H159.461V62.3594C159.461 63.974 159.773 65.1458 160.398 65.875C161.049 66.5781 162.195 66.9297 163.836 66.9297C164.93 66.9297 166.036 66.7995 167.156 66.5391V73.8828C164.995 74.4818 162.911 74.7812 160.906 74.7812C153.615 74.7812 149.969 70.7578 149.969 62.7109V38.7656H143.016V31.7344H149.969V21.4609H159.461ZM211.297 53.2969C211.297 59.8594 209.826 65.0807 206.883 68.9609C203.966 72.8411 199.943 74.7812 194.812 74.7812C189.865 74.7812 186.01 72.9974 183.25 69.4297L182.781 74H174.188V14H183.68V35.7969C186.414 32.5677 190.099 30.9531 194.734 30.9531C199.891 30.9531 203.94 32.8672 206.883 36.6953C209.826 40.5234 211.297 45.875 211.297 52.75V53.2969ZM201.805 52.4766C201.805 47.8932 200.997 44.4557 199.383 42.1641C197.768 39.8724 195.424 38.7266 192.352 38.7266C188.237 38.7266 185.346 40.5234 183.68 44.1172V61.5391C185.372 65.2109 188.289 67.0469 192.43 67.0469C195.398 67.0469 197.69 65.9401 199.305 63.7266C200.919 61.513 201.753 58.1667 201.805 53.6875V52.4766ZM237.898 74.7812C231.883 74.7812 227 72.8932 223.25 69.1172C219.526 65.3151 217.664 60.263 217.664 53.9609V52.7891C217.664 48.5703 218.471 44.8073 220.086 41.5C221.727 38.1667 224.018 35.5755 226.961 33.7266C229.904 31.8776 233.185 30.9531 236.805 30.9531C242.56 30.9531 247 32.7891 250.125 36.4609C253.276 40.1328 254.852 45.3281 254.852 52.0469V55.875H227.234C227.521 59.3646 228.68 62.125 230.711 64.1562C232.768 66.1875 235.346 67.2031 238.445 67.2031C242.794 67.2031 246.336 65.4453 249.07 61.9297L254.188 66.8125C252.495 69.3385 250.229 71.3047 247.391 72.7109C244.578 74.0911 241.414 74.7812 237.898 74.7812ZM236.766 38.5703C234.161 38.5703 232.052 39.4818 230.438 41.3047C228.849 43.1276 227.833 45.6667 227.391 48.9219H245.477V48.2188C245.268 45.0417 244.422 42.6458 242.938 41.0312C241.453 39.3906 239.396 38.5703 236.766 38.5703Z" fill="#D81B60"/>
</svg>
